<?xml version="1.0"?>
<svg xmlns="http://www.w3.org/2000/svg" xmlns:xlink="http://www.w3.org/1999/xlink" version="1.1" id="Capa_1" x="0px" y="0px" viewBox="0 0 512 512" style="enable-background:new 0 0 512 512;" xml:space="preserve" width="512px" height="512px"><g><g>
	<g>
		<path d="M448,362.667c5.896,0,10.667-4.771,10.667-10.667v-42.667c0-5.896-4.771-10.667-10.667-10.667    c-5.896,0-10.667,4.771-10.667,10.667v4.74v2.883c-0.073-0.018-0.145-0.036-0.217-0.056c0.017-0.945,0.217-1.881,0.217-2.827    c0-18.438-2.958-36.667-8.792-54.177L404.5,187.771c-8.104-24.292-27.542-42.479-52.021-48.646    c-8.835-2.22-20.07-4.565-32.479-6.57v-25.888h10.667c11.771,0,21.333-9.573,21.333-21.333V42.667C352,19.135,332.854,0,309.333,0    H224c-23.521,0-42.667,19.135-42.667,42.667v42.667c0,11.76,9.563,21.333,21.333,21.333h10.667v25.888    c-12.409,2.005-23.645,4.35-32.479,6.57c-1.324,0.333-2.453,1.066-3.746,1.469C151.32,108.591,133.848,80.435,124.492,64H128    c5.896,0,10.667-4.771,10.667-10.667c0-5.896-4.771-10.667-10.667-10.667H85.333c-5.896,0-10.667,4.771-10.667,10.667    C74.667,59.229,79.437,64,85.333,64h14.829c7.016,13.219,26.012,46.625,57.447,86.204c-13.12,9.007-23.508,21.775-28.776,37.566    l-24.042,72.125c-3.061,9.189-5.227,18.59-6.693,28.102c-8.083-2.336-15.895-4.85-23.432-7.529v-13.802    C74.667,260.771,69.896,256,64,256s-10.667,4.771-10.667,10.667v42.667C53.333,315.229,58.104,320,64,320    s10.667-4.771,10.667-10.667v-6.624c7.052,2.357,14.277,4.591,21.711,6.674c-0.043,1.572-0.378,3.113-0.378,4.689    c0,16.68,2.581,33.286,7.582,49.557c-16.513,3.723-28.915,18.451-28.915,36.068c0,17.021,3.25,58.51,10.792,77.292l4.688,11.729    C95.792,502.865,109.292,512,124.521,512h285.854c14.104,0,26.792-7.833,33.125-20.469c10.708-21.458,15.167-66.344,15.167-85.604    v-6.229c0-17.617-12.401-32.344-28.914-36.068c2.315-7.533,3.984-15.15,5.246-22.801c0.781-0.02,1.616-0.042,2.335-0.061V352    C437.333,357.896,442.104,362.667,448,362.667z M266.667,192c27.792,0,53.5,5,70.188,9.188c3.083,0.781,5.812,3.448,6.917,6.823    l24.042,72.125c1.517,4.544,2.529,9.199,3.423,13.871c-58.46-25.829-106.402-62.121-144.379-98.885    C239.001,193.301,252.552,192,266.667,192z M165.521,280.135l24.042-72.156c1.104-3.344,3.813-6.021,6.896-6.792    c1.533-0.384,3.499-0.781,5.177-1.174c43.188,43.922,100.13,88.358,171.475,117.854c-0.026,0.723-0.086,1.444-0.126,2.167    c-57.06-0.763-138.197-4.553-212.036-17.708C161.779,294.81,163.108,287.361,165.521,280.135z M369.732,341.148    c-1.872,7.193-4.37,14.219-7.669,20.841l-16.038,31.573c-21.333-4.984-49.036-9.563-79.358-9.563    c-30.322,0-58.025,4.578-79.357,9.563l-15.977-31.458c-5.978-11.982-9.556-25.1-10.768-38.41    C234.059,336.57,312.999,340.375,369.732,341.148z M376.708,458.115c-1.375,0.458-34.521,11.219-110.042,11.219    S158,458.573,156.625,458.115c-5.583-1.854-8.583-7.865-6.729-13.448c1.833-5.604,7.938-8.635,13.438-6.792    C163.646,437.969,195.229,448,266.667,448S369.687,437.969,370,437.875c5.479-1.844,11.583,1.188,13.438,6.792    C385.292,450.25,382.292,456.26,376.708,458.115z" data-original="#000000" class="active-path" data-old_color="#000000" fill="#FFFFFF"/>
	</g>
</g></g> </svg>
