<?xml version="1.0"?>
<svg xmlns="http://www.w3.org/2000/svg" height="512px" viewBox="0 0 64 64" width="512px"><g><g id="engine_power" data-name="engine power"><circle cx="27" cy="40" r="3" data-original="#000000" class="active-path" data-old_color="#000000" fill="#FFFFFF"/><path d="m32.51 42.71c.07-.16.15-.32.22-.5l.05-.16a1.094 1.094 0 0 1 .84-.73l2.38-.3v-2.04l-2.38-.3a1.019 1.019 0 0 1 -.83-.69 4.26 4.26 0 0 0 -.28-.7.98.98 0 0 1 .11-1.04l1.47-1.89-1.45-1.45-1.88 1.46a.981.981 0 0 1 -1.05.12 4.26 4.26 0 0 0 -.7-.28 1.006 1.006 0 0 1 -.69-.82l-.33-2.39h-2.01l-.3 2.38a1.019 1.019 0 0 1 -.69.83 4.26 4.26 0 0 0 -.7.28.98.98 0 0 1 -1.04-.11l-1.89-1.47-1.45 1.45 1.47 1.89a.98.98 0 0 1 .11 1.04 4.26 4.26 0 0 0 -.28.7 1.019 1.019 0 0 1 -.83.69l-2.38.3v2.04l2.38.3a1.019 1.019 0 0 1 .83.69 4.26 4.26 0 0 0 .28.7.98.98 0 0 1 -.11 1.04l-1.47 1.89 1.45 1.45 1.89-1.47a.98.98 0 0 1 1.04-.11 4.26 4.26 0 0 0 .7.28 1.019 1.019 0 0 1 .69.83l.3 2.38h2.04l.3-2.38a1.019 1.019 0 0 1 .69-.83 4.26 4.26 0 0 0 .7-.28.98.98 0 0 1 1.04.11l1.89 1.47 1.45-1.45-1.47-1.89a.98.98 0 0 1 -.11-1.04zm-5.51 2.29a5 5 0 1 1 5-5 5.006 5.006 0 0 1 -5 5z" data-original="#000000" class="active-path" data-old_color="#000000" fill="#FFFFFF"/><path d="m34.72 36.8 2.4.31a1 1 0 0 1 .88.99v.72a2.995 2.995 0 1 0 -2.19-5.57l.32.32a1.006 1.006 0 0 1 .08 1.32z" data-original="#000000" class="active-path" data-old_color="#000000" fill="#FFFFFF"/><path d="m4 34v20a1 1 0 0 0 1 1h1v-22h-1a1 1 0 0 0 -1 1z" data-original="#000000" class="active-path" data-old_color="#000000" fill="#FFFFFF"/><path d="m8 43h2v2h-2z" data-original="#000000" class="active-path" data-old_color="#000000" fill="#FFFFFF"/><path d="m39 14h4v4h-4z" data-original="#000000" class="active-path" data-old_color="#000000" fill="#FFFFFF"/><path d="m54 11a3.009 3.009 0 0 0 -3-3h-20a3.009 3.009 0 0 0 -3 3v1h26z" data-original="#000000" class="active-path" data-old_color="#000000" fill="#FFFFFF"/><path d="m42.79 33.99a4.26 4.26 0 0 0 -.28-.7.98.98 0 0 1 .11-1.04l1.47-1.89-1.45-1.45-1.89 1.47a.98.98 0 0 1 -1.04.11 4.26 4.26 0 0 0 -.7-.28 1.019 1.019 0 0 1 -.69-.83l-.3-2.38h-2.04l-.3 2.38a1.019 1.019 0 0 1 -.69.83 4.26 4.26 0 0 0 -.7.28.982.982 0 0 1 -1.04-.11l-1.89-1.47-1.44 1.45.27 1.92 1.92-1.49a1.006 1.006 0 0 1 1.32.08l.9.9a5 5 0 1 1 3.67 9.13v1a1 1 0 0 1 -.88.99l-2.4.31 1.41 1.8h1.89l.3-2.38a1.019 1.019 0 0 1 .69-.83 4.26 4.26 0 0 0 .7-.28 1 1 0 0 1 1.04.11l1.89 1.47 1.45-1.45-1.47-1.89a.98.98 0 0 1 -.11-1.04 4.26 4.26 0 0 0 .28-.7 1.019 1.019 0 0 1 .83-.69l2.38-.3v-2.04l-2.38-.3a1.019 1.019 0 0 1 -.83-.69z" data-original="#000000" class="active-path" data-old_color="#000000" fill="#FFFFFF"/><path d="m54 33h2v2h-2z" data-original="#000000" class="active-path" data-old_color="#000000" fill="#FFFFFF"/><path d="m59 23h-1v22h1a1 1 0 0 0 1-1v-20a1 1 0 0 0 -1-1z" data-original="#000000" class="active-path" data-old_color="#000000" fill="#FFFFFF"/><path d="m51 20h-21.59l-9.84 6.82a.988.988 0 0 1 -.57.18h-6a1 1 0 0 0 -1 1v27a1 1 0 0 0 1 1h27.7a1 1 0 0 0 .91-.59l3.48-7.82a.987.987 0 0 1 .91-.59h6v-26a1 1 0 0 0 -1-1zm-7 2h2v2h-2zm-28 32h-2v-2h2zm4 0h-2v-2h2zm28-16.1a1 1 0 0 1 -.88.99l-2.4.31 1.49 1.91a1.006 1.006 0 0 1 -.08 1.32l-2.7 2.7a1.006 1.006 0 0 1 -1.32.08l-1.91-1.49-.31 2.4a1 1 0 0 1 -.99.88h-3.35l-2.12 2.13a1.006 1.006 0 0 1 -1.32.08l-1.91-1.49-.31 2.4a1 1 0 0 1 -.99.88h-3.8a1 1 0 0 1 -.99-.88l-.31-2.4-1.91 1.49a1.006 1.006 0 0 1 -1.32-.08l-2.7-2.7a1.019 1.019 0 0 1 -.08-1.33l1.49-1.9-2.4-.31a1 1 0 0 1 -.88-.99v-3.8a1 1 0 0 1 .88-.99l2.4-.31-1.49-1.91a1.006 1.006 0 0 1 .08-1.32l2.7-2.7a1.006 1.006 0 0 1 1.32-.08l1.91 1.49.31-2.4a1 1 0 0 1 .99-.88h3.35l2.12-2.13a1.006 1.006 0 0 1 1.32-.08l1.91 1.49.31-2.4a1 1 0 0 1 .99-.88h3.8a1 1 0 0 1 .99.88l.31 2.4 1.91-1.49a1.006 1.006 0 0 1 1.32.08l2.7 2.7a1.006 1.006 0 0 1 .08 1.32l-1.49 1.91 2.4.31a1 1 0 0 1 .88.99zm2-13.9h-2v-2h2z" data-original="#000000" class="active-path" data-old_color="#000000" fill="#FFFFFF"/></g></g> </svg>
