<?xml version="1.0"?>
<svg xmlns="http://www.w3.org/2000/svg" id="Capa_1" enable-background="new 0 0 511.847 511.847" height="512px" viewBox="0 0 511.847 511.847" width="512px"><g><g><path d="m396.383 93.426c-5.337 0-10.675 2.032-14.738 6.095-8.126 8.126-8.126 21.35 0 29.476s21.35 8.126 29.476 0 8.126-21.35 0-29.476c-4.063-4.064-9.401-6.095-14.738-6.095z" data-original="#000000" class="active-path" data-old_color="#000000" fill="#FFFFFF"/><path d="m468.409 42.233c-27.234-27.235-63.444-42.233-101.96-42.233s-74.726 14.998-101.96 42.233c-23.312 23.311-37.594 52.911-41.303 85.599-3.45 30.401 2.934 61.43 18.003 87.833l-239.984 239.983 53.789 53.79 28.104-28.105 30.515 30.515 50.279-50.279-30.515-30.515 37.658-37.658 30.515 30.515 50.279-50.279-30.515-30.515 73.663-73.663c26.404 15.068 57.428 21.45 87.834 18.003 32.688-3.71 62.287-17.992 85.598-41.303 27.236-27.235 42.234-63.445 42.234-101.96-.001-38.516-14.999-74.727-42.234-101.961zm-36.051 108c-9.918 9.918-22.947 14.878-35.975 14.878s-26.056-4.96-35.975-14.878c-19.837-19.837-19.837-52.113 0-71.95s52.113-19.837 71.95 0c19.836 19.837 19.836 52.114 0 71.95z" data-original="#000000" class="active-path" data-old_color="#000000" fill="#FFFFFF"/></g></g> </svg>
